<?xml version="1.0" encoding="UTF-8"?>
<svg version="1.1" xmlns="http://www.w3.org/2000/svg" width="512" height="512">
<path d="M0 0 C7.34845898 5.1595563 11.74723418 13.78377114 16.125 21.4375 C20.2537167 28.5407518 24.4530051 35.57526854 28.875 42.5 C33.29401802 49.42869227 37.6139324 56.41051736 41.875 63.4375 C46.32217612 70.77020199 50.7913424 78.08765375 55.3125 85.375 C60.14033783 93.15728554 64.95184579 100.94937323 69.75 108.75 C70.75716064 110.38739136 70.75716064 110.38739136 71.78466797 112.05786133 C73.15290332 114.28250824 74.52106704 116.50719921 75.88916016 118.73193359 C79.23743688 124.17617568 82.58754759 129.6192889 85.9375 135.0625 C87.27084242 137.22916108 88.60417574 139.39582775 89.9375 141.5625 C90.5975 142.635 91.2575 143.7075 91.9375 144.8125 C131.27083333 208.72916667 170.60416667 272.64583333 209.9375 336.5625 C210.59790283 337.63564453 211.25830566 338.70878906 211.9387207 339.81445312 C213.26802137 341.97458701 214.59728587 344.13474315 215.92651367 346.29492188 C220.0144969 352.93833314 224.10285027 359.58151456 228.1953125 366.22216797 C229.55174331 368.42733507 230.90468248 370.63465422 232.25390625 372.84423828 C235.22608961 377.70598721 238.22334017 382.53342002 241.38671875 387.2734375 C250.49435825 401.07152543 250.49435825 401.07152543 249.5703125 409.63671875 C248.33610677 414.3678407 246.37677466 416.99227012 242.5 419.875 C237.39238001 422.24194585 232.32701559 422.20610056 226.78300667 422.19113445 C225.5517393 422.19376401 225.5517393 422.19376401 224.29559785 422.19644669 C221.53332168 422.20111439 218.77109797 422.1986392 216.00881958 422.19621277 C214.01308934 422.19808035 212.01735946 422.20038084 210.02163017 422.20307809 C204.52807533 422.20920899 199.03453568 422.20906098 193.54097819 422.20788372 C187.61994742 422.20768004 181.69892156 422.21319531 175.77789307 422.21794128 C164.17429504 422.22625532 152.57070171 422.2290094 140.96710099 422.22955366 C131.53793064 422.23001304 122.10876194 422.23207053 112.67959213 422.23525429 C109.96632795 422.23615182 107.25306376 422.23704163 104.53979957 422.23792917 C103.86529347 422.23815021 103.19078738 422.23837126 102.4958417 422.23859901 C83.52130696 422.24475385 64.5467728 422.2486995 45.57223701 422.24825573 C44.85673926 422.24824015 44.1412415 422.24822457 43.40406199 422.24820852 C39.77754201 422.24812541 36.15102203 422.24802637 32.52450205 422.24792381 C31.80424934 422.24790387 31.08399662 422.24788392 30.34191806 422.24786337 C28.88539162 422.24782294 27.42886517 422.24778114 25.97233873 422.24773798 C3.30756185 422.24712513 -19.35720006 422.25463334 -42.02197266 422.26831055 C-67.47974404 422.28366683 -92.9375056 422.29227705 -118.39528191 422.29134732 C-121.10917481 422.29127269 -123.8230677 422.29122399 -126.5369606 422.29119301 C-127.20520097 422.29118135 -127.87344134 422.2911697 -128.56193142 422.29115769 C-138.65475578 422.29112881 -148.74756839 422.29645113 -158.84038925 422.30452538 C-170.31751209 422.31361427 -181.79461042 422.31581889 -193.2717353 422.30901595 C-199.12972521 422.30574267 -204.98766805 422.30572314 -210.84565353 422.3143692 C-216.20590761 422.32219944 -221.56607699 422.32083851 -226.92632891 422.31208507 C-228.8677451 422.31054239 -230.8091675 422.31239494 -232.75057636 422.31794515 C-235.38592881 422.32498155 -238.02098223 422.31973018 -240.65632439 422.31138897 C-241.41300925 422.31635715 -242.16969411 422.32132533 -242.94930881 422.32644406 C-249.07112506 422.28537852 -254.16386698 421.70798195 -258.875 417.625 C-263.04651665 412.73836621 -263.72537551 409.77209841 -263.60693359 403.46435547 C-262.57561759 397.02024907 -258.90882533 391.98152161 -255.375 386.625 C-254.5879525 385.38854767 -253.8035616 384.15040062 -253.02172852 382.91064453 C-251.45312351 380.43087125 -249.87137918 377.9604268 -248.27636719 375.49755859 C-245.27549923 370.85727112 -242.39127104 366.14653666 -239.5 361.4375 C-238.45404575 359.75073078 -237.40715782 358.06454021 -236.359375 356.37890625 C-232.64006252 350.38755933 -228.94442096 344.38171793 -225.25 338.375 C-224.57831787 337.28300293 -223.90663574 336.19100586 -223.21459961 335.06591797 C-221.84660394 332.8416807 -220.47868441 330.6173966 -219.11083984 328.39306641 C-215.76256312 322.94882432 -212.41245241 317.5057111 -209.0625 312.0625 C-207.72915758 309.89583892 -206.39582426 307.72917225 -205.0625 305.5625 C-154.39583333 223.22916667 -103.72916667 140.89583333 -53.0625 58.5625 C-52.4017749 57.48871094 -51.7410498 56.41492188 -51.06030273 55.30859375 C-49.73469362 53.15470169 -48.40868826 51.00105344 -47.08227539 48.84765625 C-43.99158846 43.82894946 -40.90459244 38.80810344 -37.83236694 33.77807617 C-36.40084814 31.43488158 -34.9669861 29.09312498 -33.53295898 26.75146484 C-32.5372806 25.12345656 -31.54494174 23.4934073 -30.55273438 21.86328125 C-14.44787097 -4.42281764 -14.44787097 -4.42281764 0 0 Z M-8.0625 45.0625 C-9.27387853 46.62460672 -9.27387853 46.62460672 -10.42578125 48.69921875 C-10.89338867 49.49279785 -11.36099609 50.28637695 -11.84277344 51.10400391 C-12.3484082 51.97718262 -12.85404297 52.85036133 -13.375 53.75 C-14.46870858 55.606261 -15.56380362 57.46170567 -16.66015625 59.31640625 C-17.22492676 60.27434082 -17.78969727 61.23227539 -18.37158203 62.21923828 C-20.96300784 66.57669497 -23.63366161 70.88341103 -26.3125 75.1875 C-27.40511779 76.94650908 -28.49756127 78.70562644 -29.58984375 80.46484375 C-30.15171387 81.36960449 -30.71358398 82.27436523 -31.29248047 83.20654297 C-34.49889769 88.38015244 -37.68646994 93.56535429 -40.875 98.75 C-41.5462793 99.84135254 -42.21755859 100.93270508 -42.90917969 102.05712891 C-44.27758699 104.28201431 -45.64591344 106.50694944 -47.01416016 108.73193359 C-50.36243688 114.17617568 -53.71254759 119.6192889 -57.0625 125.0625 C-58.39584242 127.22916108 -59.72917574 129.39582775 -61.0625 131.5625 C-181.0625 326.5625 -181.0625 326.5625 -183.0637207 329.81445312 C-184.39302137 331.97458701 -185.72228587 334.13474315 -187.05151367 336.29492188 C-190.44624596 341.811726 -193.84166414 347.32810609 -197.23828125 352.84375 C-200.57051957 358.25512061 -203.90058207 363.66782415 -207.22900391 369.08154297 C-208.42840859 371.03157375 -209.6285733 372.98113732 -210.82958984 374.93017578 C-212.40926033 377.49387322 -213.98625226 380.05919723 -215.5625 382.625 C-216.2572644 383.75035156 -216.2572644 383.75035156 -216.96606445 384.8984375 C-219.09715891 387.79114197 -219.09715891 387.79114197 -220.0625 391.0625 C-79.4825 391.0625 61.0975 391.0625 205.9375 391.0625 C201.32225633 382.53023365 201.32225633 382.53023365 196.4140625 374.21484375 C195.79402344 373.21130859 195.17398437 372.20777344 194.53515625 371.17382812 C193.88417969 370.12646484 193.23320312 369.07910156 192.5625 368 C191.86037083 366.86542384 191.15855514 365.73065363 190.45703125 364.59570312 C189.00543238 362.24778938 187.55251542 359.90069945 186.09863281 357.55419922 C182.69897219 352.06473937 179.31945723 346.56287651 175.9375 341.0625 C174.60425758 338.89577739 173.27092404 336.72911085 171.9375 334.5625 C126.60416667 260.89583333 81.27083333 187.22916667 35.9375 113.5625 C35.27733887 112.4897583 34.61717773 111.4170166 33.93701172 110.31176758 C32.60523332 108.14758703 31.27352746 105.98336185 29.94189453 103.8190918 C26.58536745 98.36401703 23.22753814 92.90975164 19.8671875 87.45703125 C18.86002686 85.82193604 18.86002686 85.82193604 17.83251953 84.15380859 C16.49836769 81.98827085 15.1634219 79.82322203 13.82763672 77.65869141 C10.48240216 72.23046534 7.16477318 66.78784701 3.890625 61.31640625 C3.24625488 60.24350342 2.60188477 59.17060059 1.93798828 58.06518555 C0.71137036 56.01959817 -0.50926517 53.97040854 -1.72314453 51.91723633 C-2.5369458 50.56214966 -2.5369458 50.56214966 -3.3671875 49.1796875 C-3.84140137 48.38159668 -4.31561523 47.58350586 -4.80419922 46.76123047 C-5.21943848 46.20064941 -5.63467773 45.64006836 -6.0625 45.0625 C-6.7225 45.0625 -7.3825 45.0625 -8.0625 45.0625 Z " fill="#FFFFFF" transform="translate(263.0625,56.9375)"/>
<path d="M0 0 C13.78090351 12.16416824 31.47018614 30.59477446 33.390625 49.93359375 C33.20363802 54.47650252 31.62930809 58.09754634 29.625 62.125 C29.09132813 63.22424805 29.09132813 63.22424805 28.546875 64.34570312 C20.79352192 79.78557003 9.67324337 92.52810839 -4 103 C-5.16982422 103.91072266 -5.16982422 103.91072266 -6.36328125 104.83984375 C-30.29943258 122.58075591 -61.11702197 129.18140771 -90.375 124.875 C-120.1004993 120.00369798 -146.81040357 104.32224368 -164.98828125 80.1640625 C-171.62927118 70.81350966 -180.78337082 57.83290642 -179 46 C-178.14330031 43.14375347 -176.95307124 40.54079778 -175.625 37.875 C-175.08262695 36.76813843 -175.08262695 36.76813843 -174.52929688 35.63891602 C-165.72715267 18.22768996 -151.82113921 2.06533208 -135 -8 C-134.09378906 -8.5775 -133.18757813 -9.155 -132.25390625 -9.75 C-91.63776845 -34.77773963 -36.50664982 -30.80857348 0 0 Z M-129 27 C-129.61488281 27.53109375 -130.22976562 28.0621875 -130.86328125 28.609375 C-134.7546274 32.22340683 -137.83134607 36.35223418 -140.875 40.6875 C-141.46583374 41.52607544 -141.46583374 41.52607544 -142.06860352 42.3815918 C-144.91066174 46.3713542 -144.91066174 46.3713542 -146 51 C-138.20852652 68.67617865 -120.38868247 82.25056486 -102.95410156 89.27294922 C-94.95855903 92.2478025 -86.518873 94.42244929 -78 95 C-76.95972656 95.07734375 -76.95972656 95.07734375 -75.8984375 95.15625 C-54.17637577 96.02803843 -33.13637871 87.10891632 -17 73 C-16.38511719 72.46890625 -15.77023437 71.9378125 -15.13671875 71.390625 C-11.2453726 67.77659317 -8.16865393 63.64776582 -5.125 59.3125 C-4.73111084 58.75344971 -4.33722168 58.19439941 -3.93139648 57.6184082 C-1.08260008 53.62897643 -1.08260008 53.62897643 0 49 C-7.88623911 31.73851159 -25.21031831 17.49697186 -42.625 10.75 C-72.90646891 -0.38855423 -104.67483469 5.73118077 -129 27 Z " fill="#FFFFFF" transform="translate(329,270)"/>
<path d="M0 0 C4.65702344 2.45552145 8.31667974 4.95003921 10 10 C10.16909702 11.76581641 10.26589922 13.5392178 10.3125 15.3125 C10.36857422 16.69888672 10.36857422 16.69888672 10.42578125 18.11328125 C9.68475791 23.13728351 7.21134979 26.07780009 3.234375 29.10546875 C2.08125708 29.81325048 0.91888152 30.50606628 -0.25 31.1875 C-0.9212793 31.59347412 -1.59255859 31.99944824 -2.28417969 32.41772461 C-4.84724339 33.96045166 -7.42343323 35.47992978 -10 37 C-12.39616856 38.42391907 -14.7919794 39.84842957 -17.1875 41.2734375 C-21.25798822 43.69358286 -25.33011018 46.11088536 -29.40698242 48.52026367 C-36.31474129 52.60502254 -43.20481601 56.71467989 -50.05078125 60.90234375 C-50.6899649 61.29293472 -51.32914856 61.6835257 -51.98770142 62.08595276 C-55.01372134 63.93636985 -58.0361403 65.792332 -61.05371094 67.65649414 C-76.07676383 76.86435304 -76.07676383 76.86435304 -84 76 C-89.2590971 74.10672504 -91.79008594 71.40216785 -95 67 C-96.66742895 61.99771316 -96.62284413 57.80171986 -94.37109375 53.03125 C-92.25921305 49.01428174 -89.67824955 46.86910753 -85.75 44.6875 C-85.0787207 44.29054932 -84.40744141 43.89359863 -83.71582031 43.48461914 C-82.11509618 42.54034285 -80.50876842 41.60553273 -78.8984375 40.67773438 C-75.52084502 38.72264547 -72.16553125 36.73114951 -68.8125 34.734375 C-64.74262614 32.3116558 -60.67221647 29.88995996 -56.59521484 27.47924805 C-45.96159651 21.18947868 -35.38988161 14.80276853 -24.85839844 8.34350586 C-23.23853027 7.35362671 -23.23853027 7.35362671 -21.5859375 6.34375 C-20.6479834 5.76818359 -19.7100293 5.19261719 -18.74365234 4.59960938 C-12.23659509 0.80585256 -7.54727755 -1.12902363 0 0 Z " fill="#FFFFFF" transform="translate(502,109)"/>
<path d="M0 0 C2.42431641 1.04541016 2.42431641 1.04541016 4.9140625 2.4765625 C5.8733667 3.02352783 6.8326709 3.57049316 7.82104492 4.1340332 C8.8701001 4.74980225 9.91915527 5.36557129 11 6 C12.13348877 6.6602417 13.26697754 7.3204834 14.43481445 8.00073242 C18.28104477 10.2512369 22.10991924 12.53046605 25.9375 14.8125 C27.34073813 15.64746229 28.74397707 16.4824232 30.1472168 17.31738281 C39.55887643 22.92315671 48.94623738 28.5687243 58.3125 34.25 C59.43068115 34.92780518 60.5488623 35.60561035 61.70092773 36.30395508 C64.80657134 38.19310993 67.90386887 40.09530739 71 42 C72.03535889 42.62583984 73.07071777 43.25167969 74.13745117 43.89648438 C75.12334229 44.50298828 76.1092334 45.10949219 77.125 45.734375 C78.43791016 46.53439941 78.43791016 46.53439941 79.77734375 47.35058594 C83.25647524 49.93241946 84.91759765 52.85079098 86 57 C86.63370621 62.25070862 85.88797296 65.57177479 83 70 C79.2979373 73.75263733 76.10407914 75.83814776 70.75 76.25 C64.15348439 75.81023229 58.89121892 72.4859764 53.30078125 69.1484375 C52.67624557 68.7770314 52.0517099 68.40562531 51.4082489 68.02296448 C49.37370035 66.8113269 47.3430188 65.59337674 45.3125 64.375 C43.88751319 63.52392978 42.46238092 62.67310306 41.03710938 61.82250977 C28.30888297 54.21769073 15.61947463 46.54895763 2.97265625 38.80957031 C0.27268872 37.16599612 -2.43855958 35.54371996 -5.15625 33.9296875 C-6.60430486 33.05752107 -8.05223455 32.18514676 -9.5 31.3125 C-10.12261719 30.9508374 -10.74523438 30.5891748 -11.38671875 30.21655273 C-15.4368583 27.74719562 -17.79091523 25.19459951 -20 21 C-20.84566778 16.19900419 -20.64250873 11.58936371 -18.8125 7.0625 C-13.14102083 0.60874785 -8.37734857 -1.08888115 0 0 Z " fill="#FFFFFF" transform="translate(20,109)"/>
<path d="M0 0 C4.51080754 3.71050298 6.67200177 7.46929802 7.42578125 13.28515625 C7.32195463 20.09277298 3.88239497 26.31141165 1.1875 32.4375 C0.59464377 33.81065965 0.00285899 35.18428235 -0.58789062 36.55834961 C-1.79204455 39.35213618 -3.00506606 42.14182318 -4.22509766 44.92871094 C-5.88963638 48.7354651 -7.51609236 52.55715676 -9.13671875 56.3828125 C-10.09010807 58.60981956 -11.04447957 60.83640649 -12 63.0625 C-12.43159424 64.08335693 -12.86318848 65.10421387 -13.30786133 66.15600586 C-15.93092966 72.17543471 -18.39713757 77.57943611 -24.01171875 81.3515625 C-28.54573442 82.83023952 -33.58890209 82.82909501 -38.1015625 81.27734375 C-42.01124184 79.22268248 -44.36843947 77.07890133 -46 73 C-47.61775813 67.71458474 -47.13042992 63.68414875 -45.08984375 58.5859375 C-44.63206543 57.4422168 -44.17428711 56.29849609 -43.70263672 55.12011719 C-43.13692258 53.74598938 -42.56920486 52.37268552 -42 51 C-41.66703918 50.19437622 -41.33407837 49.38875244 -40.99102783 48.55871582 C-38.64116184 42.89209748 -36.2496982 37.24413217 -33.8347168 31.60498047 C-32.9829661 29.60987991 -32.13665137 27.61245029 -31.2956543 25.61279297 C-30.06483298 22.68699581 -28.8175012 19.76873842 -27.56640625 16.8515625 C-27.19745743 15.96602692 -26.82850861 15.08049133 -26.44837952 14.16812134 C-23.59293513 7.58742648 -20.40569161 1.63735174 -13.75 -1.5625 C-8.79559049 -2.14051444 -4.64941067 -1.89647014 0 0 Z " fill="#FFFFFF" transform="translate(385,35)"/>
<path d="M0 0 C5.59982032 5.63534847 8.47640231 11.71027974 11.58203125 18.9609375 C12.08167892 20.10607819 12.5813266 21.25121887 13.09611511 22.43106079 C14.41206209 25.45836899 15.71581568 28.49058263 17.015625 31.52484131 C17.81198994 33.37381575 18.61785463 35.21832478 19.42749023 37.06152344 C20.99226454 40.62656631 22.53977112 44.19860541 24.08203125 47.7734375 C24.56114456 48.86433685 25.04025787 49.95523621 25.53388977 51.07919312 C28.63235413 58.37036754 31.26620614 64.93481187 28.8125 72.8125 C26.26832091 77.28674599 23.74274826 79.99902003 19 82 C14.17096486 82.68530862 10.14763551 82.519684 5.6875 80.5 C-0.66408308 74.59155062 -3.73343859 66.46641018 -7.046875 58.60546875 C-7.50354553 57.53629715 -7.96021606 56.46712555 -8.4307251 55.36555481 C-9.87675008 51.97549875 -11.31334764 48.58153698 -12.75 45.1875 C-13.72988192 42.88842168 -14.71034494 40.58959093 -15.69140625 38.29101562 C-17.47700341 34.09932686 -19.26209011 29.90743684 -21.03808594 25.71166992 C-21.39384705 24.87198166 -21.74960815 24.0322934 -22.1161499 23.16716003 C-24.44264548 17.46269922 -24.9624314 12.50232164 -22.75 6.75 C-20.1797759 2.71107642 -18.30631436 0.57477832 -13.875 -1.375 C-8.96011417 -2.16772352 -4.55701809 -2.14820791 0 0 Z " fill="#FFFFFF" transform="translate(144,35)"/>
<path d="M0 0 C4.34877438 4.13133566 6.72321822 7.23252697 7 13.3125 C6.76369669 18.22317824 5.79667283 21.69126034 2.5 25.375 C-3.24445111 29.33591119 -9.54354069 30.36881041 -16.32421875 31.296875 C-17.34747757 31.44658752 -18.37073639 31.59630005 -19.42500305 31.75054932 C-21.58145241 32.06286133 -23.73889394 32.36839006 -25.8972168 32.66748047 C-29.16275925 33.12155976 -32.42402242 33.60002771 -35.68554688 34.08203125 C-64.47801454 38.2498151 -64.47801454 38.2498151 -71.5 33.375 C-74.86074213 30.46235682 -76.25150962 28.93663351 -76.953125 24.52734375 C-77.11708222 19.80186231 -76.87331177 16.24606079 -75 11.875 C-68.95066996 5.82566996 -61.64662058 4.55048075 -53.421875 3.453125 C-52.37404846 3.30341248 -51.32622192 3.15369995 -50.24664307 2.99945068 C-48.03890109 2.68710913 -45.83018538 2.38158225 -43.62060547 2.08251953 C-40.27179849 1.62795889 -36.92701703 1.14976088 -33.58203125 0.66796875 C-31.42467658 0.3657748 -29.2671297 0.06494925 -27.109375 -0.234375 C-26.12459167 -0.37494324 -25.13980835 -0.51551147 -24.12518311 -0.66033936 C-6.4873367 -3.01197775 -6.4873367 -3.01197775 0 0 Z " fill="#FFFFFF" transform="translate(76.5,253.625)"/>
<path d="M0 0 C1.05165344 0.14588562 2.10330688 0.29177124 3.18682861 0.44207764 C5.38899277 0.75054833 7.59055309 1.06335905 9.79150391 1.38037109 C13.14408452 1.85986979 16.49938404 2.31529114 19.85546875 2.76953125 C22.00801903 3.07406453 24.16037071 3.38000568 26.3125 3.6875 C27.30538025 3.81997131 28.2982605 3.95244263 29.32122803 4.08892822 C36.55655172 5.16340157 42.68143346 6.83245368 47.890625 12.171875 C50.01409073 17.03815063 50.05464911 21.37718505 49.390625 26.609375 C47.79353001 30.36254823 45.45416456 32.92877788 42.390625 35.609375 C31.10542823 39.37110726 16.77078778 35.52744542 5.34155273 33.83837891 C2.07039713 33.35824071 -1.20361757 32.90303899 -4.47851562 32.44921875 C-6.58094707 32.14472999 -8.68316908 31.83879077 -10.78515625 31.53125 C-11.75302567 31.39877869 -12.72089508 31.26630737 -13.71809387 31.12982178 C-19.93786598 30.18278095 -26.64057071 28.92675062 -31.02217102 24.03070068 C-34.29201107 19.38002083 -34.49736827 14.0913743 -33.609375 8.609375 C-26.95032787 -5.22095365 -12.74381566 -1.81905568 0 0 Z " fill="#FFFFFF" transform="translate(462.609375,253.390625)"/>
<path d="M0 0 C5.26317231 3.99493802 8.69415252 8.47076259 10 15 C10.83394256 22.36453501 10.08062021 28.94140511 5.5234375 34.9453125 C0.91801154 39.9713253 -3.67511229 42.51025992 -10.44921875 43.27734375 C-18.15749638 43.57245392 -24.06764555 42.07661349 -29.8125 36.8125 C-35.07661349 31.06764555 -36.57245392 25.15749638 -36.27734375 17.44921875 C-35.51025992 10.67511229 -32.9713253 6.08198846 -27.9453125 1.4765625 C-19.9822404 -4.56769704 -8.62439835 -5.04580983 0 0 Z " fill="#FFFFFF" transform="translate(269,300)"/>
</svg>
