<?xml version="1.0" encoding="UTF-8"?>
<svg version="1.1" xmlns="http://www.w3.org/2000/svg" width="512" height="512">
<path d="M0 0 C1.85351204 2.37249541 3.13320844 4.36930023 4.5 7 C5.36003674 8.55374004 6.22075864 10.10710094 7.08203125 11.66015625 C7.54561035 12.51367676 8.00918945 13.36719727 8.48681641 14.24658203 C11.29762555 19.36118441 14.25809442 24.39023375 17.1875 29.4375 C18.4839721 31.68567962 19.77953321 33.93438481 21.07421875 36.18359375 C24.87919818 42.79115035 28.6890651 49.39587693 32.5 56 C33.7500235 58.16665311 35.00002347 60.33331979 36.25 62.5 C36.86875 63.5725 37.4875 64.645 38.125 65.75 C88.75 153.5 88.75 153.5 90.62524414 156.75048828 C91.87435518 158.91557071 93.12354129 161.08060982 94.37280273 163.24560547 C97.51202309 168.68615706 100.64990563 174.12747216 103.78515625 179.5703125 C109.80747329 190.02206199 115.84669337 200.46299548 121.9375 210.875 C127.35958699 220.14563931 132.70324012 229.45936699 138.02023315 238.79046631 C142.63484029 246.88707843 147.29084886 254.95788801 152 263 C157.05630923 271.63497557 162.04607122 280.30606319 167 289 C172.53774539 298.71753555 178.12971934 308.40141245 183.77685547 318.0559082 C189.96009527 328.63028436 196.08256585 339.23929105 202.18945312 349.85791016 C203.97969669 352.96476489 205.77815129 356.06674332 207.578125 359.16796875 C208.67724526 361.07021895 209.77621171 362.97255803 210.875 364.875 C211.38111816 365.74278076 211.88723633 366.61056152 212.40869141 367.50463867 C212.86937012 368.30490479 213.33004883 369.1051709 213.8046875 369.9296875 C214.40772705 370.96971924 214.40772705 370.96971924 215.02294922 372.03076172 C216.57993038 375.1688452 217.23074405 377.139954 216.3125 380.5625 C214.78553576 383.39829074 213.78452692 384.38970837 211 386 C207.72613865 386.37719816 207.72613865 386.37719816 203.7438364 386.38031673 C203.00796483 386.38497665 202.27209325 386.38963657 201.51392254 386.3944377 C199.03453893 386.40644089 196.55569793 386.39697203 194.0763092 386.38768005 C192.28625368 386.39185065 190.4962008 386.39732665 188.70615286 386.40399987 C183.77650795 386.41850922 178.84702944 386.41419267 173.91737521 386.40683305 C168.60508232 386.40211722 163.29282626 386.41459714 157.98054504 386.42485046 C147.56927529 386.44207492 137.15806578 386.44287094 126.74678547 386.43763756 C118.2872483 386.43360145 109.82772898 386.43503275 101.36819267 386.44038582 C100.16567147 386.44113424 98.96315026 386.44188266 97.72418902 386.44265376 C95.28152581 386.44418519 92.8388626 386.44572354 90.3961994 386.44726873 C67.47272568 386.46100693 44.54928606 386.45554678 21.62581312 386.44408352 C0.63906646 386.43414942 -20.34759206 386.44709256 -41.33432513 386.47101771 C-62.86687139 386.49538077 -84.39937655 386.50502349 -105.93193632 386.49836498 C-118.02751037 386.49486659 -130.12301659 386.49714567 -142.21858025 386.51461601 C-152.51517123 386.52930309 -162.81164666 386.53001929 -173.10823529 386.5125451 C-178.36452156 386.50400392 -183.62060108 386.50196133 -188.87687683 386.51719666 C-193.68513045 386.53096118 -198.49299858 386.52638744 -203.30122942 386.50695742 C-205.04412018 386.50317166 -206.78704121 386.50619283 -208.52990519 386.51656907 C-210.89307155 386.52964195 -213.25488819 386.51824401 -215.61799526 386.50057125 C-216.93231736 386.50046391 -218.24663945 386.50035658 -219.60078949 386.50024599 C-223.56121864 385.91740807 -225.20807011 384.81649042 -228 382 C-229.2736014 378.87481745 -229.1675179 377.48170085 -228.05859375 374.29296875 C-227.52363281 373.26816406 -226.98867187 372.24335938 -226.4375 371.1875 C-226.12941406 370.59549805 -225.82132813 370.00349609 -225.50390625 369.39355469 C-220.61650603 360.17455822 -215.20120754 351.23451673 -209.90576172 342.24707031 C-206.76168946 336.89014474 -203.66202384 331.50778564 -200.5625 326.125 C-199.94052734 325.04573242 -199.31855469 323.96646484 -198.67773438 322.85449219 C-197.4153306 320.66385034 -196.15312377 318.473095 -194.89111328 316.28222656 C-191.76319852 310.85340058 -188.63141552 305.42680719 -185.5 300 C-184.24998121 297.83334417 -182.99998122 295.6666775 -181.75 293.5 C-154.25 245.83333333 -126.75 198.16666667 -99.25 150.5 C-98.63116943 149.42733887 -98.01233887 148.35467773 -97.37475586 147.24951172 C-96.12564482 145.08442929 -94.87645871 142.91939018 -93.62719727 140.75439453 C-90.48797691 135.31384294 -87.35009437 129.87252784 -84.21484375 124.4296875 C-78.19252671 113.97793801 -72.15330663 103.53700452 -66.0625 93.125 C-60.98724877 84.44737759 -55.97741233 75.73394432 -51 67 C-45.46890852 57.29450611 -39.89153537 47.61791039 -34.24072266 37.98144531 C-31.10465949 32.62868018 -28.00055696 27.25972076 -24.93359375 21.8671875 C-23.91221351 20.07669664 -22.89046263 18.28641766 -21.86868286 16.49615479 C-20.89864832 14.79155614 -19.9354421 13.08307743 -18.97241211 11.37451172 C-18.38081299 10.3382666 -17.78921387 9.30202148 -17.1796875 8.234375 C-16.66132324 7.31881836 -16.14295898 6.40326172 -15.60888672 5.45996094 C-11.25445156 -1.19789773 -7.62460485 -3.18244376 0 0 Z M-15 38 C-16.42328684 40.27093323 -17.78442143 42.55533535 -19.125 44.875 C-19.55296875 45.61008789 -19.9809375 46.34517578 -20.421875 47.10253906 C-21.39405849 48.7746675 -22.36429473 50.44792898 -23.33300781 52.12207031 C-24.85459264 54.74896574 -26.38199414 57.37240267 -27.91134644 59.99478149 C-29.27235967 62.33019031 -30.62996119 64.66757014 -31.98675537 67.00543213 C-32.98824366 68.72975836 -33.99239743 70.45253558 -34.99658203 72.17529297 C-35.92639893 73.78235107 -35.92639893 73.78235107 -36.875 75.421875 C-37.42929688 76.37674805 -37.98359375 77.33162109 -38.5546875 78.31542969 C-39.27011719 79.64429199 -39.27011719 79.64429199 -40 81 C-40.39455887 81.72163834 -40.78911774 82.44327667 -41.19563293 83.18678284 C-42.29303032 87.02485292 -41.37749298 89.97117603 -40.31518555 93.69604492 C-40.11225891 94.45434097 -39.90933228 95.21263702 -39.70025635 95.99391174 C-39.02725163 98.49372483 -38.33225943 100.986841 -37.63671875 103.48046875 C-37.16413102 105.2169574 -36.69286104 106.95380517 -36.22285461 108.69099426 C-34.98274526 113.25941587 -33.7236094 117.82238774 -32.46081543 122.38458252 C-31.43144227 126.11559306 -30.41532025 129.85014899 -29.39993572 133.58498669 C-27.30472448 141.29112702 -25.20094147 148.9949683 -23.07299805 156.69213867 C-22.87708572 157.4064505 -22.6811734 158.12076233 -22.47932434 158.85671997 C-21.47252418 162.51416917 -21.47252418 162.51416917 -20 166 C-18.02 166 -16.04 166 -14 166 C-14 123.76 -14 81.52 -14 38 C-14.33 38 -14.66 38 -15 38 Z M2 38 C2 80.24 2 122.48 2 166 C3.98 166 5.96 166 8 166 C8.17128418 165.45996338 8.34256836 164.91992676 8.51904297 164.36352539 C9.29656252 161.92727996 10.08560969 159.49492362 10.875 157.0625 C11.14441406 156.21236328 11.41382813 155.36222656 11.69140625 154.48632812 C11.95566406 153.67744141 12.21992188 152.86855469 12.4921875 152.03515625 C12.73308105 151.2862915 12.97397461 150.53742676 13.22216797 149.76586914 C14 148 14 148 16 147 C23.18215613 146.42998761 23.18215613 146.42998761 26.0625 148.4375 C28.47446043 155.03019184 25.42833011 163.3575716 24 170 C25.98 170.66 27.96 171.32 30 172 C30.33620361 171.40276123 30.67240723 170.80552246 31.01879883 170.19018555 C32.03384347 168.38805485 33.04961943 166.58633597 34.06591797 164.78491211 C35.23741245 162.70736801 36.40698687 160.62874013 37.57470703 158.54907227 C40.43268376 153.47439627 43.3203998 148.42899147 46.34765625 143.453125 C46.85901123 142.60403564 47.37036621 141.75494629 47.8972168 140.88012695 C48.86270668 139.28426931 49.84153949 137.69638786 50.83520508 136.11791992 C52.72882028 132.96823128 53.96252605 130.79765987 54.13671875 127.08984375 C52.42983006 122.45015663 49.98532994 118.34911755 47.4375 114.125 C46.65729492 112.80628906 46.65729492 112.80628906 45.86132812 111.4609375 C44.58249688 109.3021765 43.29527161 107.14892274 42 105 C39.64853821 107.35146179 39.37301531 108.74580977 38.5625 111.9375 C38.17964844 113.40316406 38.17964844 113.40316406 37.7890625 114.8984375 C37.52867187 115.92195313 37.26828125 116.94546875 37 118 C36.48547289 120.02244816 35.96492278 122.04337644 35.4375 124.0625 C35.20933594 124.96097656 34.98117187 125.85945313 34.74609375 126.78515625 C34 129 34 129 32 131 C29.90625 131.265625 29.90625 131.265625 27.5 131.25 C26.7059375 131.25515625 25.911875 131.2603125 25.09375 131.265625 C23 131 23 131 21 129 C19.07869728 119.38169124 23.56129697 109.04109627 26.30566406 99.92700195 C26.959093 97.74010751 27.59342753 95.54830875 28.2265625 93.35546875 C28.43374908 92.690811 28.64093567 92.02615326 28.85440063 91.34135437 C30.06215759 87.13531566 30.0929103 84.84502103 28 81 C27.59410645 80.22068115 27.18821289 79.4413623 26.77001953 78.63842773 C26.31224121 77.82833252 25.85446289 77.0182373 25.3828125 76.18359375 C24.86364258 75.26328369 24.34447266 74.34297363 23.80957031 73.39477539 C23.25366211 72.41887451 22.69775391 71.44297363 22.125 70.4375 C21.55362305 69.43130615 20.98224609 68.4251123 20.39355469 67.38842773 C16.41221399 60.40685462 12.36675097 53.46507436 8.25 46.5625 C7.73711426 45.69874756 7.22422852 44.83499512 6.69580078 43.94506836 C6.22384277 43.16010986 5.75188477 42.37515137 5.265625 41.56640625 C4.85086914 40.87490479 4.43611328 40.18340332 4.00878906 39.47094727 C3.67588867 38.98553467 3.34298828 38.50012207 3 38 C2.67 38 2.34 38 2 38 Z M-54 105 C-56.04827851 108.35905145 -58.05845836 111.73940116 -60.0625 115.125 C-60.64322266 116.07632813 -61.22394531 117.02765625 -61.82226562 118.0078125 C-62.36689453 118.9359375 -62.91152344 119.8640625 -63.47265625 120.8203125 C-63.98062744 121.66867676 -64.48859863 122.51704102 -65.01196289 123.39111328 C-66.28786183 126.7600918 -65.96750815 128.5488141 -65 132 C-63.65842025 134.90535077 -63.65842025 134.90535077 -61.90234375 137.78125 C-61.2688501 138.86486816 -60.63535645 139.94848633 -59.98266602 141.06494141 C-58.97030884 142.76529541 -58.97030884 142.76529541 -57.9375 144.5 C-57.25027387 145.66920311 -56.56399645 146.83896435 -55.87866211 148.00927734 C-54.53469122 150.30250908 -53.18619438 152.59285044 -51.83496094 154.88183594 C-49.54285231 158.77683478 -47.29408515 162.69511097 -45.0625 166.625 C-44.45535156 167.68976563 -43.84820312 168.75453125 -43.22265625 169.8515625 C-42.81917969 170.56054688 -42.41570312 171.26953125 -42 172 C-39.03 171.505 -39.03 171.505 -36 171 C-36.66261038 163.79128459 -38.43127442 157.01883722 -40.30859375 150.0390625 C-40.79876732 148.19868912 -40.79876732 148.19868912 -41.29884338 146.32113647 C-41.98799003 143.74018874 -42.67931254 141.159944 -43.37426758 138.58056641 C-44.26469416 135.27399838 -45.14398689 131.96458357 -46.02027798 128.65424538 C-46.85997638 125.48913358 -47.70979321 122.32674337 -48.55859375 119.1640625 C-48.87324081 117.97454987 -49.18788788 116.78503723 -49.5120697 115.55947876 C-49.80900223 114.46428925 -50.10593475 113.36909973 -50.41186523 112.24072266 C-50.6708812 111.27445953 -50.92989716 110.30819641 -51.19676208 109.31265259 C-51.86614632 106.84321051 -51.86614632 106.84321051 -54 105 Z M-77 145 C-79.64 149.62 -82.28 154.24 -85 159 C-80.48931502 164.37322976 -75.78504366 169.48975137 -70.875 174.5 C-69.82119141 175.60988281 -69.82119141 175.60988281 -68.74609375 176.7421875 C-68.06417969 177.43570313 -67.38226563 178.12921875 -66.6796875 178.84375 C-66.06851074 179.47474609 -65.45733398 180.10574219 -64.82763672 180.75585938 C-63.07421537 182.24048582 -63.07421537 182.24048582 -60.89501953 181.75976562 C-58.95843943 181.01349006 -58.95843943 181.01349006 -57 180 C-57.59741851 175.73867603 -59.0982985 172.67974303 -61.23828125 168.96484375 C-61.89376953 167.82595703 -62.54925781 166.68707031 -63.22460938 165.51367188 C-63.5677417 164.92642334 -63.91087402 164.3391748 -64.2644043 163.73413086 C-65.30815764 161.9449436 -66.33736162 160.14795647 -67.36523438 158.34960938 C-70.32030172 153.25117939 -72.79659986 149.20340014 -77 145 Z M64 145 C59.33871834 151.76668577 55.1288556 158.73719959 51.0625 165.875 C50.46115234 166.90625 49.85980469 167.9375 49.24023438 169 C48.67755859 169.98742187 48.11488281 170.97484375 47.53515625 171.9921875 C47.023479 172.88276855 46.51180176 173.77334961 45.98461914 174.69091797 C44.66096973 177.08790557 44.66096973 177.08790557 46 180 C47.65 180.66 49.3 181.32 51 182 C58.26 174.74 65.52 167.48 73 160 C68.26491106 148.9486833 68.26491106 148.9486833 64 145 Z M-94 174 C-95.98 177.96 -97.96 181.92 -100 186 C-97.58706946 187.48557291 -95.1700253 188.96356592 -92.75 190.4375 C-92.06808594 190.85837891 -91.38617188 191.27925781 -90.68359375 191.71289062 C-90.01972656 192.11572266 -89.35585937 192.51855469 -88.671875 192.93359375 C-87.76066895 193.4913147 -87.76066895 193.4913147 -86.83105469 194.06030273 C-84.83283017 195.08579156 -83.23865895 195.74816494 -81 196 C-78.22877725 193.64573501 -78.22877725 193.64573501 -76 191 C-78.80848497 188.16266225 -81.62243923 185.33081251 -84.4375 182.5 C-85.23994141 181.68917969 -86.04238281 180.87835938 -86.86914062 180.04296875 C-87.63291016 179.27597656 -88.39667969 178.50898438 -89.18359375 177.71875 C-89.89056396 177.00654297 -90.59753418 176.29433594 -91.32592773 175.56054688 C-92.74047406 173.88635506 -92.74047406 173.88635506 -94 174 Z M79.41772461 175.46875 C78.42011108 176.47421875 78.42011108 176.47421875 77.40234375 177.5 C76.68369141 178.221875 75.96503906 178.94375 75.22460938 179.6875 C74.46986328 180.450625 73.71511719 181.21375 72.9375 182 C72.17888672 182.763125 71.42027344 183.52625 70.63867188 184.3125 C68.75687495 186.20613213 66.87744195 188.10205162 65 190 C65.98366981 192.45917453 66.7118236 193.79252196 68.8840332 195.35644531 C70.96394603 196.20160799 70.96394603 196.20160799 72.90698242 195.43261719 C73.87148315 194.8704248 73.87148315 194.8704248 74.85546875 194.296875 C75.55994141 193.89339844 76.26441406 193.48992187 76.99023438 193.07421875 C77.71533203 192.63722656 78.44042969 192.20023438 79.1875 191.75 C79.92419922 191.32847656 80.66089844 190.90695313 81.41992188 190.47265625 C85.36716295 188.39047749 85.36716295 188.39047749 88 185 C86.77667094 182.28873335 86.77667094 182.28873335 85.0625 179.375 C84.49660156 178.37210938 83.93070312 177.36921875 83.34765625 176.3359375 C82.90292969 175.56507813 82.45820313 174.79421875 82 174 C80.7623361 173.88661245 80.7623361 173.88661245 79.41772461 175.46875 Z M-59 208 C-69.86412376 222.63797728 -75.33955605 240.72360404 -72.71582031 258.97705078 C-69.44908793 276.87401493 -60.60680839 293.01806763 -45.91796875 304.0859375 C-30.19777913 314.39770847 -12.91497897 319.75083035 6.01171875 316.34375 C24.32911627 312.50581909 40.53738441 302.76042306 51 287 C61.22909795 269.91656797 64.69121913 251.94654453 59.96875 232.37890625 C54.65699674 213.85202492 42.87393097 199.35622923 26.2265625 189.6875 C-3.49710231 174.14195133 -37.62689468 183.00553796 -59 208 Z M-109 200 C-110.98 203.96 -112.96 207.92 -115 212 C-109.29052349 214.20000533 -109.29052349 214.20000533 -103.3125 215.125 C-99.62740353 213.33225037 -97.44604534 210.21936551 -95 207 C-96.95519384 205.82807953 -98.9142539 204.6626071 -100.875 203.5 C-101.96554688 202.8503125 -103.05609375 202.200625 -104.1796875 201.53125 C-106.75807672 199.84095147 -106.75807672 199.84095147 -109 200 Z M89.375 203.5 C87.87066406 204.47453125 87.87066406 204.47453125 86.3359375 205.46875 C85.56507813 205.9740625 84.79421875 206.479375 84 207 C84.90484792 208.15518918 85.8244206 209.29885406 86.75 210.4375 C87.26046875 211.07558594 87.7709375 211.71367187 88.296875 212.37109375 C90.27391225 214.2619757 91.28763017 214.75710121 94 215 C96.39318762 214.48304561 96.39318762 214.48304561 98.75 213.5625 C100.1525 213.046875 101.555 212.53125 103 212 C100.03 206.06 100.03 206.06 97 200 C93.86827983 200 91.96390427 201.81420187 89.375 203.5 Z M-87.0390625 221.90625 C-95.61726723 230.51037076 -103.3514784 239.56508901 -111 249 C-103.27679738 259.72667031 -94.60072413 269.9075495 -85 279 C-83.58889106 276.17778212 -84.47745673 274.79744896 -85.375 271.8125 C-90.55109549 254.51853611 -88.0648394 237.22112764 -84 220 C-85.34347348 219.88618061 -85.34347348 219.88618061 -87.0390625 221.90625 Z M73 220 C73.28875 221.22332031 73.5775 222.44664062 73.875 223.70703125 C78.25798306 243.17309122 77.57167307 259.63161723 73 279 C77.63091452 275.17353269 81.89768738 271.19446944 85.9375 266.75 C86.44893555 266.19223877 86.96037109 265.63447754 87.48730469 265.05981445 C91.88556927 260.21910047 96.01766185 255.18875235 100 250 C92.38446211 239.42286404 83.7988327 228.64444967 74 220 C73.67 220 73.34 220 73 220 Z M-124 227 C-125.33878572 229.1217363 -126.67115476 231.24705188 -128 233.375 C-128.57234375 234.27992188 -128.57234375 234.27992188 -129.15625 235.203125 C-131.29684569 238.36116713 -131.29684569 238.36116713 -132 242 C-129.08164556 242.60799051 -127.78869417 242.86689744 -125 242 C-120.91255777 238.14364991 -116.9306825 233.6904587 -116 228 C-118.64 227.67 -121.28 227.34 -124 227 Z M104 229 C105.51927291 231.18583138 107.06197784 233.34580614 108.625 235.5 C109.05167969 236.12003906 109.47835938 236.74007812 109.91796875 237.37890625 C111.36225107 239.42603281 111.36225107 239.42603281 114 242 C117.22809055 242.54498011 117.22809055 242.54498011 120 242 C118.63207535 238.38477058 117.04396746 235.04320734 115.125 231.6875 C114.63257813 230.80449219 114.14015625 229.92148437 113.6328125 229.01171875 C113.09398437 228.34785156 112.55515625 227.68398438 112 227 C108.23312136 227 107.08809695 227.23537317 104 229 Z M-152 275 C-152.98940882 277.00526063 -153.98475272 279.00769657 -155 281 C-141.59348716 277.94079573 -128.29300158 274.51754357 -115 271 C-115.92733139 269.59183012 -116.85922557 268.18649639 -117.8112793 266.79492188 C-119 265 -119 265 -120.07348633 263.09570312 C-121.70549341 260.39338341 -122.96692793 258.44480584 -125.92333984 257.171875 C-128.22763354 256.68643015 -130.33293511 256.52002638 -132.6875 256.5 C-133.48679932 256.49210449 -134.28609863 256.48420898 -135.10961914 256.47607422 C-145.47616753 257.21872091 -148.36544319 266.5173846 -152 275 Z M104 270 C107.41964989 272.27976659 110.74217661 273.1698456 114.66015625 274.19921875 C115.77867226 274.49817802 115.77867226 274.49817802 116.91978455 274.80317688 C118.49338114 275.22195222 120.06774965 275.63783622 121.64282227 276.05102539 C124.05942176 276.6866903 126.47209729 277.33592247 128.88476562 277.98632812 C130.41384413 278.39145011 131.94313421 278.79577457 133.47265625 279.19921875 C134.55861839 279.49284554 134.55861839 279.49284554 135.66651917 279.79240417 C139.39299098 280.94829766 139.39299098 280.94829766 143 280 C137.49689642 266.73305023 137.49689642 266.73305023 127.86083984 256.76464844 C115.99358562 253.26075641 109.15019609 260.13979552 104 270 Z M-110.78491211 285.40527344 C-111.97301987 285.7126947 -113.16112762 286.02011597 -114.38523865 286.33685303 C-115.68273565 286.67720367 -116.98010096 287.01805671 -118.27734375 287.359375 C-118.93155367 287.5309034 -119.58576359 287.70243179 -120.25979805 287.87915802 C-123.72147636 288.78716311 -127.1818841 289.69984247 -130.64135742 290.61621094 C-134.21042834 291.56059764 -137.78353082 292.48866469 -141.35782528 293.41305161 C-144.10981679 294.12798647 -146.85847724 294.85512583 -149.60638618 295.58557892 C-150.92204412 295.93302092 -152.23892646 296.27586117 -153.55702019 296.61394501 C-155.40329438 297.08871229 -157.24463242 297.58255062 -159.08569336 298.07714844 C-160.6576371 298.49018219 -160.6576371 298.49018219 -162.26133728 298.91156006 C-167.32265611 300.92310443 -169.56826767 304.62737506 -172.1015625 309.26171875 C-172.6699585 310.29095459 -173.23835449 311.32019043 -173.82397461 312.38061523 C-174.41831299 313.47188721 -175.01265137 314.56315918 -175.625 315.6875 C-180.33485519 324.24496457 -185.10358681 332.7391252 -190.24267578 341.04760742 C-191.22054847 342.66428832 -192.11992264 344.32806819 -193 346 C-192.67 346.66 -192.34 347.32 -192 348 C-191.20940186 347.5467334 -190.41880371 347.0934668 -189.60424805 346.62646484 C-186.61713631 344.9146192 -183.62943653 343.20380846 -180.64135742 341.49365234 C-179.35824979 340.75902793 -178.07536497 340.02401419 -176.79272461 339.28857422 C-173.1104253 337.17740848 -169.42353349 335.07469007 -165.73013306 332.98300171 C-164.07324004 332.04161245 -162.42161986 331.0909609 -160.77026367 330.13989258 C-159.80193604 329.59228271 -158.8336084 329.04467285 -157.8359375 328.48046875 C-156.99466309 327.99989014 -156.15338867 327.51931152 -155.28662109 327.02416992 C-151.67472356 325.40641313 -149.68861219 325.66582112 -146 327 C-143.51163035 330.73255448 -143.45773448 332.58440935 -144 337 C-147.17581909 339.93220625 -150.65595576 342.08512175 -154.40234375 344.21484375 C-155.44793457 344.81280762 -156.49352539 345.41077148 -157.57080078 346.02685547 C-158.68181152 346.65736816 -159.79282227 347.28788086 -160.9375 347.9375 C-163.26742334 349.27128002 -165.59686534 350.60587098 -167.92578125 351.94140625 C-168.51365417 352.2780127 -169.1015271 352.61461914 -169.70721436 352.96142578 C-175.70156193 356.39557819 -181.66983783 359.87333101 -187.625 363.375 C-188.57238037 363.92792725 -189.51976074 364.48085449 -190.49584961 365.05053711 C-191.78567749 365.8105603 -191.78567749 365.8105603 -193.1015625 366.5859375 C-194.23585693 367.25181885 -194.23585693 367.25181885 -195.39306641 367.93115234 C-196.18849854 368.46023193 -196.18849854 368.46023193 -197 369 C-197 369.33 -197 369.66 -197 370 C-188.33737838 371.90419258 -179.65366355 373.11853742 -170.8125 373.8125 C-170.15208206 373.8647171 -169.49166412 373.9169342 -168.81123352 373.97073364 C-151.02027157 375.20917787 -137.52132595 372.0760399 -123.78007507 360.35612488 C-116.39134391 353.76839482 -109.48513779 346.74902528 -102.75 339.5 C-102.07193424 338.77057316 -101.39386848 338.04114632 -100.69525528 337.28961563 C-92.18912013 328.09014001 -83.97672481 318.66108764 -76 309 C-77.20455325 306.31873046 -77.71755932 305.17797507 -80.26538086 303.57250977 C-84.04962593 302.78025419 -85.47383951 303.86409031 -88.75390625 305.83984375 C-89.85669922 306.49146484 -90.95949219 307.14308594 -92.09570312 307.81445312 C-93.2516116 308.52162975 -94.40720966 309.22931401 -95.5625 309.9375 C-97.23795898 310.93620117 -97.23795898 310.93620117 -98.94726562 311.95507812 C-103.43439392 314.6317477 -107.90470157 317.33582715 -112.37231445 320.04492188 C-113.43281006 320.67849609 -114.49330566 321.31207031 -115.5859375 321.96484375 C-116.53130371 322.53452881 -117.47666992 323.10421387 -118.45068359 323.69116211 C-122.04517279 325.53659944 -124.06215177 325.83784005 -128 325 C-130.43990897 323.45472432 -130.88339116 322.36926132 -131.75 319.625 C-132.02808849 316.70507089 -132.04238057 314.75486293 -131 312 C-129.35060063 311.29168938 -127.67951628 310.63359868 -126 310 C-122.2143678 307.97152351 -118.50525996 305.81293143 -114.7890625 303.66015625 C-113.00835741 302.62983562 -111.22318673 301.60759417 -109.4375 300.5859375 C-108.303125 299.93109375 -107.16875 299.27625 -106 298.6015625 C-104.453125 297.70945068 -104.453125 297.70945068 -102.875 296.79931641 C-100.0655714 295.04103781 -97.54157954 293.12284964 -95 291 C-96.09463822 289.82438854 -97.20107186 288.6597511 -98.3125 287.5 C-99.23482422 286.52546875 -99.23482422 286.52546875 -100.17578125 285.53125 C-103.48660881 282.75213993 -106.9248109 284.40197863 -110.78491211 285.40527344 Z M89.2734375 285.53125 C88.33371094 286.50578125 88.33371094 286.50578125 87.375 287.5 C86.74335938 288.1496875 86.11171875 288.799375 85.4609375 289.46875 C84.97882813 289.9740625 84.49671875 290.479375 84 291 C86.92629249 294.17440814 89.84345489 296.2534503 93.6015625 298.36328125 C94.71805176 298.99500244 95.83454102 299.62672363 96.98486328 300.27758789 C98.19823766 300.95590002 99.41161669 301.63420384 100.625 302.3125 C101.88698773 303.02454459 103.14853733 303.73736621 104.40966797 304.45092773 C106.35403665 305.55093263 108.29866659 306.65044428 110.24465942 307.74757385 C116.5627902 311.30991369 122.846615 314.93061129 129.125 318.5625 C131.25516932 319.79303629 133.38537777 321.02350483 135.515625 322.25390625 C136.57330078 322.86508301 137.63097656 323.47625977 138.72070312 324.10595703 C142.14096806 326.08141976 145.56245635 328.05474772 148.984375 330.02734375 C150.14957869 330.69913413 151.31478053 331.37092772 152.47998047 332.04272461 C154.66119437 333.30022438 156.84250157 334.55756235 159.02392578 335.81469727 C166.02890622 339.8543827 173.01874185 343.91946004 180 348 C180.495 347.01 180.495 347.01 181 346 C179.77397885 343.31904114 179.77397885 343.31904114 177.94921875 340.27734375 C177.6202359 339.70416916 177.29125305 339.13099457 176.95230103 338.54045105 C175.13303933 335.38044678 173.27823184 332.24133131 171.4284668 329.09912109 C170.67856936 327.8227699 169.92897487 326.54624067 169.1796875 325.26953125 C168.80892593 324.63976379 168.43816437 324.00999634 168.0561676 323.36114502 C165.99956338 319.83421972 164.13238124 316.29738023 162.4453125 312.57421875 C159.75813176 306.78677341 157.26552058 301.65830739 151.1640625 299.03125 C146.80250517 297.5799042 142.33678745 296.72489553 137.83300781 295.8359375 C133.03662257 294.78989781 128.31939645 293.51677861 123.5859375 292.21875 C122.66476639 291.96636566 121.74359528 291.71398132 120.79450989 291.45394897 C118.91169251 290.93720038 117.02902827 290.41989355 115.14651489 289.90203857 C110.57750566 288.64929413 106.00277929 287.41850238 101.42578125 286.1953125 C100.19587967 285.8630365 100.19587967 285.8630365 98.94113159 285.52404785 C93.78528518 283.66558076 93.78528518 283.66558076 89.2734375 285.53125 Z M70 303 C68.02 304.65 66.04 306.3 64 308 C67.43274006 312.13689186 70.91891314 315.85640025 74.875 319.5 C78.90596669 323.46999409 78.90596669 323.46999409 79.6875 327.875 C79 331 79 331 77 334 C73.46640578 334.93340225 71.09985264 335.49840001 67.70703125 333.9609375 C63.32013852 330.78313065 59.80948685 326.73734239 56.171875 322.7421875 C54.51292244 321.00389373 52.94410823 319.41284238 51 318 C48.20625603 317.74400982 48.20625603 317.74400982 46 319 C45.34 319.66 44.68 320.32 44 321 C44.35078613 321.60134766 44.70157227 322.20269531 45.06298828 322.82226562 C46.1316171 324.65420074 47.20021776 326.48615227 48.26879883 328.31811523 C49.5158299 330.45576564 50.76306606 332.59329641 52.01049805 334.73071289 C55.34903419 340.45182406 58.68399593 346.17493853 62.01171875 351.90234375 C62.64899902 352.99804688 63.2862793 354.09375 63.94287109 355.22265625 C65.17751186 357.34563216 66.41093466 359.46931692 67.64306641 361.59375 C68.2004248 362.55152344 68.7577832 363.50929688 69.33203125 364.49609375 C69.82421143 365.34357178 70.3163916 366.1910498 70.82348633 367.06420898 C71.85545122 368.93445415 71.85545122 368.93445415 73 370 C75.14558827 370.08775605 77.29404421 370.10695219 79.44140625 370.09765625 C80.74658203 370.09443359 82.05175781 370.09121094 83.39648438 370.08789062 C84.7851569 370.07953401 86.17382877 370.07106905 87.5625 370.0625 C88.95507656 370.05748666 90.34765481 370.05292347 91.74023438 370.04882812 C95.1601987 370.03699434 98.58007844 370.0205088 102 370 C98.69717876 366.07481749 95.37543357 362.26085699 91.6875 358.6875 C87.06581834 354.20666959 87.06581834 354.20666959 86.8125 349.5625 C87 346 87 346 89 343 C92.125 341.875 92.125 341.875 96 342 C100.92171595 345.15832195 104.65585215 349.70785767 108.27416992 354.23120117 C115.04400317 362.42991876 121.38266482 369.98153549 132.32666016 371.70556641 C139.66531276 372.25752999 146.92995453 371.95369573 154.25567627 371.44195557 C157.733396 371.22306944 161.21457788 371.13040098 164.69726562 371.02539062 C171.47298152 370.8032971 178.23550517 370.44741061 185 370 C182.39640081 367.28415198 179.78608414 365.58901989 176.49609375 363.734375 C175.37638184 363.09943115 174.25666992 362.4644873 173.10302734 361.81030273 C172.5065741 361.47505585 171.91012085 361.13980896 171.29559326 360.79440308 C168.76158447 359.37007921 166.23366239 357.93510114 163.7052002 356.5009613 C162.39750414 355.75946655 161.08947639 355.01855649 159.78112793 354.2782135 C153.45870435 350.69987146 147.16425348 347.07379869 140.875 343.4375 C138.72656553 342.19660933 136.57812803 340.95572392 134.4296875 339.71484375 C133.36975586 339.10237793 132.30982422 338.48991211 131.21777344 337.85888672 C124.74495479 334.11958162 118.26935421 330.38509361 111.79345703 326.65112305 C106.73071954 323.73149577 101.66925949 320.80972417 96.61242676 317.87988281 C94.23187827 316.50081969 91.85058694 315.12304215 89.46923828 313.74536133 C87.7951735 312.77615342 86.12218088 311.80509435 84.44921875 310.83398438 C83.42957031 310.24423828 82.40992188 309.65449219 81.359375 309.046875 C80.46702148 308.52963867 79.57466797 308.01240234 78.65527344 307.47949219 C75.81162543 305.89503955 72.92128269 304.43548556 70 303 Z M-62 317 C-68.78288159 323.75976099 -75.56309602 330.52218238 -82.33987427 337.2880621 C-85.48633093 340.42928931 -88.63371553 343.56957514 -91.78320312 346.70776367 C-94.81982169 349.73355555 -97.85402553 352.76174916 -100.88653564 355.7916584 C-102.04674733 356.95001544 -103.20784199 358.10748875 -104.36981201 359.26408195 C-105.99104133 360.87810375 -107.60916645 362.49517538 -109.2265625 364.11303711 C-110.15033691 365.03459091 -111.07411133 365.95614471 -112.02587891 366.90562439 C-114.11431782 368.64159521 -114.11431782 368.64159521 -114 370 C-106.63346764 370.59945299 -99.31723254 370.93880188 -91.9296875 370.76171875 C-90.72038574 370.73553467 -89.51108398 370.70935059 -88.26513672 370.68237305 C-84.16090017 369.82463855 -82.71665646 368.36139379 -80.125 365.125 C-79.38879463 363.24726271 -78.66079801 361.36524225 -78.00195312 359.45898438 C-76.00797751 354.56538729 -73.09996986 350.12117827 -70.39593506 345.59368896 C-65.39597094 337.17651975 -60.64543664 328.61677886 -56 320 C-57.98 319.01 -59.96 318.02 -62 317 Z M-42 327 C-42.3717334 327.66829834 -42.7434668 328.33659668 -43.12646484 329.02514648 C-56.36088764 352.79612745 -56.36088764 352.79612745 -63.15380859 364.13452148 C-65.1231733 366.89164771 -65.1231733 366.89164771 -66 370 C-59.73 370 -53.46 370 -47 370 C-44.36620798 362.97655461 -42.23354521 356.02235963 -40.30078125 348.79882812 C-39.74679536 346.73807918 -39.17828339 344.68167227 -38.609375 342.625 C-38.25431368 341.30753245 -37.90011575 339.98983185 -37.546875 338.671875 C-37.22557617 337.4869043 -36.90427734 336.30193359 -36.57324219 335.08105469 C-36.03638048 332.19553733 -35.98135288 330.70249915 -37 328 C-38.65 327.67 -40.3 327.34 -42 327 Z M24 329 C25.29146039 337.21527167 27.27095458 345.16094299 29.51391602 353.16503906 C30.07095271 355.15519955 30.61893535 357.14770707 31.16601562 359.140625 C32.29528861 364.97462389 32.29528861 364.97462389 35 370 C36.41570123 370.08651611 37.835595 370.10704904 39.25390625 370.09765625 C40.10791016 370.09443359 40.96191406 370.09121094 41.84179688 370.08789062 C42.73962891 370.07951172 43.63746094 370.07113281 44.5625 370.0625 C45.46419922 370.05798828 46.36589844 370.05347656 47.29492188 370.04882812 C49.53001314 370.03700225 51.76497437 370.0205222 54 370 C49.6869809 362.04818087 45.3004739 354.13971584 40.875 346.25 C40.26785156 345.16589844 39.66070312 344.08179688 39.03515625 342.96484375 C36.04550553 337.63036894 33.0453668 332.30287751 30 327 C27.53721199 327 26.14775881 327.85452863 24 329 Z M-20 333 C-23.57562558 345.28180811 -26.97946657 357.5693432 -30 370 C-24.72 370 -19.44 370 -14 370 C-14 357.79 -14 345.58 -14 333 C-15.98 333 -17.96 333 -20 333 Z M2 333 C2 345.21 2 357.42 2 370 C7.28 370 12.56 370 18 370 C16.73867521 365.05152981 15.47598761 360.10345074 14.2097168 355.15625 C13.77920812 353.47254048 13.34951681 351.78862175 12.9206543 350.10449219 C12.30471213 347.68629611 11.68585156 345.26886325 11.06640625 342.8515625 C10.87470352 342.0963028 10.68300079 341.34104309 10.48548889 340.56289673 C9.51372537 336.6852548 9.51372537 336.6852548 8 333 C6.02 333 4.04 333 2 333 Z " fill="#000000" transform="translate(262,39)"/>
<path d="M0 0 C7.83258002 5.02808716 12.05679747 14.64458194 16.5 22.5 C17.49575595 24.2438322 18.49152463 25.98765737 19.48826599 27.73092651 C20.16659678 28.91768183 20.84429855 30.10479691 21.52137756 31.29226685 C24.78396062 37.01172794 28.10789038 42.6944031 31.4375 48.375 C36.86008443 57.64448031 42.20205448 66.95832687 47.51922607 76.28845215 C52.72045129 85.4128284 57.98027878 94.50132774 63.28344727 103.56689453 C69.43766742 114.09084625 75.52369996 124.65380137 81.60888672 135.21777344 C84.73680148 140.64659942 87.86858448 146.07319281 91 151.5 C92.25001879 153.66665583 93.50001878 155.8333225 94.75 158 C95.36875 159.0725 95.9875 160.145 96.625 161.25 C207.25 353.00000001 207.25 353.00000001 209.1262207 356.25219727 C210.3720577 358.41159395 211.61798818 360.57093669 212.86401367 362.73022461 C216.05348953 368.25767597 219.24116885 373.78615121 222.42578125 379.31640625 C223.72126513 381.56515546 225.01683682 383.81385409 226.3125 386.0625 C226.93398926 387.14152588 227.55547852 388.22055176 228.19580078 389.33227539 C232.28606637 396.42399554 236.41238877 403.49323233 240.62036133 410.51586914 C244.94269207 417.78434566 245.43886087 424.12178446 244.5 432.5 C242.12690116 438.81457788 238.6086483 443.44567585 232.5 446.5 C227.73420322 448.41804663 223.42647862 448.78440751 218.35019112 448.75447559 C217.13790286 448.75928531 217.13790286 448.75928531 215.90112394 448.76419219 C213.18784559 448.77250607 210.47478717 448.76656303 207.76150513 448.76069641 C205.79862188 448.76371646 203.83573981 448.7676052 201.87285984 448.77228898 C196.4746915 448.78259661 191.07658937 448.78038012 185.67841554 448.77610838 C179.85826537 448.77364618 174.03813135 448.78264903 168.21798706 448.79014587 C156.81404581 448.80290898 145.41012809 448.80468456 134.0061809 448.80234561 C124.73865442 448.80056409 115.47113509 448.80230852 106.20360947 448.80657005 C104.88566024 448.80716524 103.56771101 448.80776043 102.20982393 448.80837366 C100.20375926 448.80928091 98.19769459 448.81018957 96.19162992 448.81110601 C77.5389627 448.81953623 58.88629808 448.82387075 40.23362923 448.81969929 C39.53038559 448.81954291 38.82714195 448.81938654 38.10258789 448.81922542 C34.53823909 448.81841963 30.97389029 448.81757386 27.4095415 448.81671212 C26.70164584 448.81654103 25.99375018 448.81636994 25.26440313 448.81619367 C23.832866 448.81584702 22.40132887 448.81549849 20.96979175 448.81514808 C-1.30579902 448.80979067 -23.58135021 448.81772158 -45.85693359 448.83618164 C-70.88183668 448.85689579 -95.90671525 448.86762547 -120.93162739 448.86360615 C-134.18252917 448.8616427 -147.43339642 448.86420446 -160.68429184 448.87832069 C-171.96484332 448.89021609 -183.24533653 448.89166008 -194.52588879 448.87953053 C-200.28276695 448.87362891 -206.03953845 448.87257784 -211.79640961 448.88453293 C-217.06542818 448.89534788 -222.33425047 448.89234075 -227.6032597 448.87827124 C-229.51034321 448.87561219 -231.41744189 448.87802855 -233.32451056 448.88600711 C-235.91608059 448.89609762 -238.50696626 448.88770454 -241.09850883 448.87473011 C-241.83944607 448.88203946 -242.58038331 448.8893488 -243.34377319 448.89687964 C-249.65101193 448.8313985 -254.74307516 447.16697781 -260.1875 443.875 C-265.50469621 438.41409578 -267.83093569 433.37061197 -268.1875 425.6875 C-267.87051749 418.0799197 -265.39097901 412.92755286 -261.5 406.5 C-260.79858199 405.29685237 -260.09947591 404.09235477 -259.40234375 402.88671875 C-257.76911663 400.07718967 -256.11633757 397.28015633 -254.453125 394.48828125 C-251.01961438 388.71042234 -247.66642566 382.88680652 -244.3125 377.0625 C-243.67513916 375.95632324 -243.03777832 374.85014648 -242.38110352 373.71044922 C-241.07237584 371.43876335 -239.76386516 369.16695245 -238.45556641 366.89501953 C-235.30667946 361.4283002 -232.15316736 355.96425113 -229 350.5 C-227.7499765 348.33334689 -226.49997653 346.16668021 -225.25 344 C-206.5 311.5 -206.5 311.5 -187.75 279 C-187.13116943 277.92733887 -186.51233887 276.85467773 -185.87475586 275.74951172 C-184.62564482 273.58442929 -183.37645871 271.41939018 -182.12719727 269.25439453 C-178.98797691 263.81384294 -175.85009437 258.37252784 -172.71484375 252.9296875 C-166.69252671 242.47793801 -160.65330663 232.03700452 -154.5625 221.625 C-149.48724877 212.94737759 -144.47741233 204.23394432 -139.5 195.5 C-133.9599827 185.77884383 -128.36625191 176.09105342 -122.71655273 166.43310547 C-116.56233258 155.90915375 -110.47630004 145.34619863 -104.39111328 134.78222656 C-101.26319852 129.35340058 -98.13141552 123.92680719 -95 118.5 C-93.74998121 116.33334417 -92.49998122 114.1666775 -91.25 112 C-83.75 99 -76.25 86 -68.75 73 C-68.13108887 71.92717773 -67.51217773 70.85435547 -66.87451172 69.74902344 C-65.62628966 67.58552524 -64.37791761 65.42211357 -63.12939453 63.25878906 C-59.33834491 56.68948263 -55.55317874 50.11682848 -51.77172852 43.54199219 C-49.90133564 40.29570855 -48.0235749 37.0537823 -46.14453125 33.8125 C-43.71551826 29.62075454 -41.3213596 25.411662 -38.94921875 21.1875 C-37.8206569 19.20813693 -36.69176606 17.22896139 -35.5625 15.25 C-35.06733887 14.35120117 -34.57217773 13.45240234 -34.06201172 12.52636719 C-26.97601122 0.2256941 -14.01577258 -6.17782597 0 0 Z M-18.5 18.5 C-19.59445569 20.21674352 -20.6250245 21.97526553 -21.6015625 23.76171875 C-22.16866943 24.789021 -22.73577637 25.81632324 -23.32006836 26.87475586 C-23.9156958 27.96796143 -24.51132324 29.06116699 -25.125 30.1875 C-26.38793429 32.47472564 -27.65225999 34.76118353 -28.91796875 37.046875 C-29.53333496 38.15998047 -30.14870117 39.27308594 -30.78271484 40.41992188 C-32.94303833 44.29462206 -35.17002558 48.12478733 -37.4375 51.9375 C-41.57379249 58.90732924 -45.64121624 65.91501978 -49.6875 72.9375 C-50.64450806 74.59833618 -50.64450806 74.59833618 -51.62084961 76.29272461 C-52.92889477 78.56337068 -54.23675448 80.83412358 -55.54443359 83.10498047 C-58.69332054 88.5716998 -61.84683264 94.03574887 -65 99.5 C-66.2500235 101.66665311 -67.50002347 103.83331979 -68.75 106 C-81.25 127.66666667 -93.75 149.33333333 -106.25 171 C-106.86883057 172.07266113 -107.48766113 173.14532227 -108.12524414 174.25048828 C-109.37435518 176.41557071 -110.62354129 178.58060982 -111.87280273 180.74560547 C-115.01202309 186.18615706 -118.14990563 191.62747216 -121.28515625 197.0703125 C-127.30747329 207.52206199 -133.34669337 217.96299548 -139.4375 228.375 C-144.51275123 237.05262241 -149.52258767 245.76605568 -154.5 254.5 C-160.0400173 264.22115617 -165.63374809 273.90894658 -171.28344727 283.56689453 C-177.43766742 294.09084625 -183.52369996 304.65380137 -189.60888672 315.21777344 C-192.73680148 320.64659942 -195.86858448 326.07319281 -199 331.5 C-200.25001879 333.66665583 -201.50001878 335.8333225 -202.75 338 C-225.25 377 -225.25 377 -227.12866211 380.25488281 C-228.36814922 382.40429738 -229.60596518 384.55467657 -230.84204102 386.70605469 C-233.76304151 391.78531786 -236.70007897 396.85305797 -239.69747925 401.88757324 C-241.11139517 404.2647581 -242.51576663 406.6475144 -243.91943359 409.03076172 C-244.91358914 410.70962104 -245.92148132 412.38032199 -246.9296875 414.05078125 C-247.82880859 415.58025391 -247.82880859 415.58025391 -248.74609375 417.140625 C-249.27904053 418.03297852 -249.8119873 418.92533203 -250.36108398 419.84472656 C-251.74176823 423.06365943 -252.07591803 425.03578778 -251.5 428.5 C-248.66865668 431.4939071 -246.98482035 432.43301337 -242.8711071 433.00139666 C-241.43374652 433.0224507 -239.99596275 433.02156762 -238.55856323 433.00336456 C-237.36185293 433.01208521 -237.36185293 433.01208521 -236.14096665 433.02098203 C-233.45679158 433.03562697 -230.7735245 433.02167608 -228.08935547 433.00793457 C-226.14994271 433.01254171 -224.21053345 433.01889336 -222.27113152 433.02684355 C-216.93324706 433.04358564 -211.59564761 433.03526831 -206.25776196 433.02289867 C-200.50444263 433.01387046 -194.75117326 433.02780682 -188.99786377 433.03881836 C-177.72377091 433.05663201 -166.44978439 433.05275091 -155.17568731 433.0411678 C-146.01537037 433.03214494 -136.85508329 433.0309045 -127.69476318 433.03526306 C-125.74131511 433.03618246 -125.74131511 433.03618246 -123.74840343 433.03712043 C-121.10304975 433.0383993 -118.45769607 433.03969615 -115.81234241 433.0410108 C-91.69788852 433.05209936 -67.58349063 433.04058786 -43.46904585 433.01964041 C-21.44873383 433.00065754 0.57148567 433.00235603 22.59179688 433.02148438 C47.32368639 433.0428963 72.05552261 433.05132622 96.78742027 433.03903532 C99.42320124 433.03776108 102.05898221 433.0365036 104.69476318 433.03526306 C105.99171651 433.03464596 107.28866984 433.03402886 108.62492478 433.03339306 C117.77732656 433.02993514 126.92969558 433.03577801 136.08209229 433.04518127 C147.2313904 433.05638405 158.38057582 433.05339746 169.52986097 433.0320583 C175.22157718 433.02152474 180.91310531 433.01746533 186.60482025 433.03065491 C191.81087091 433.04253684 197.01655839 433.03608571 202.2225759 433.0147447 C204.11011702 433.01026078 205.99768856 433.01258475 207.88521028 433.02224785 C210.44343593 433.03434425 213.00040414 433.02200633 215.55856323 433.00336456 C216.66778031 433.01741156 216.66778031 433.01741156 217.79940581 433.03174233 C221.38539106 432.97921586 223.39546863 432.56525214 226.46519661 430.64902067 C228.75192024 428.63142525 228.75192024 428.63142525 228.99829102 425.61230469 C228.42880324 422.05530801 227.35382506 419.80468737 225.52734375 416.703125 C224.88273193 415.59308105 224.23812012 414.48303711 223.57397461 413.33935547 C222.86198776 412.14280167 222.14982488 410.9463526 221.4375 409.75 C220.70518193 408.4983064 219.9741628 407.24585201 219.24438477 405.99267578 C217.74075309 403.41426404 216.2305454 400.83988894 214.71484375 398.26855469 C212.0358377 393.71883334 209.40323742 389.14275068 206.77172852 384.56542969 C204.92371649 381.35102517 203.07012539 378.13990094 201.21484375 374.9296875 C197.47348344 368.45489978 193.73642517 361.97763657 190 355.5 C188.75001878 353.3333225 187.50001879 351.16665583 186.25 349 C148.75 284.00000001 148.75 284.00000001 146.87475586 280.74951172 C145.62564482 278.58442929 144.37645871 276.41939018 143.12719727 274.25439453 C139.98797691 268.81384294 136.85009437 263.37252784 133.71484375 257.9296875 C127.69252671 247.47793801 121.65330663 237.03700452 115.5625 226.625 C110.14078822 217.35500223 104.79795085 208.04168248 99.48077393 198.71154785 C94.27954871 189.5871716 89.01972122 180.49867226 83.71655273 171.43310547 C77.56233258 160.90915375 71.47630004 150.34619863 65.39111328 139.78222656 C62.26319852 134.35340058 59.13141552 128.92680719 56 123.5 C54.74998121 121.33334417 53.49998122 119.1666775 52.25 117 C51.63125 115.9275 51.0125 114.855 50.375 113.75 C29.75 78 29.75 78 27.8737793 74.74780273 C26.6279423 72.58840605 25.38201182 70.42906331 24.13598633 68.26977539 C20.94651047 62.74232403 17.75883115 57.21384879 14.57421875 51.68359375 C11.45290092 46.26403866 8.32641372 40.84750225 5.1953125 35.43359375 C4.09727084 33.53352628 3.00081388 31.63254177 1.90625 29.73046875 C0.5050067 27.29653833 -0.90266801 24.86646235 -2.3125 22.4375 C-2.71509033 21.73488037 -3.11768066 21.03226074 -3.5324707 20.30834961 C-5.41675513 16.815054 -5.41675513 16.815054 -8.5 14.5 C-13.60063575 13.94558307 -15.19274944 14.67844087 -18.5 18.5 Z " fill="#000000" transform="translate(267.5,2.5)"/>
<path d="M0 0 C1.44430855 2.88861709 1.37688506 4.79647701 1 8 C-1.38711295 11.2296234 -2.81190161 12.78878251 -6.8125 13.5 C-10.02088953 12.99672321 -12.67987571 11.93732159 -15.68359375 10.74609375 C-25.79685803 7.48870171 -36.57743422 8.85103178 -46.01953125 13.48046875 C-56.55596591 19.77926758 -62.23462952 27.3304634 -66 39 C-68.22912366 50.42958309 -66.50699141 60.87407111 -60.25 70.875 C-53.707747 79.83361278 -45.18493732 85.61394779 -34.27734375 87.68359375 C-23.44278446 89.18890988 -13.54026765 86.73203048 -4.3515625 80.78125 C4.82529301 73.83001061 10.14206298 64.35405956 12 53 C12.58815428 44.61880145 10.78760122 36.49495665 7 29 C6.52646683 25.29065683 6.76104224 23.45800237 8.5 20.125 C11.34860852 17.70368276 13.29995787 17.18793743 17.04296875 17.47265625 C19.74815161 18.20159774 21.31012275 19.62436377 22.90625 21.89453125 C26.27530578 28.37996362 28.47969448 35.71572273 29 43 C29.06316406 43.83402344 29.12632812 44.66804688 29.19140625 45.52734375 C29.81808819 60.58792582 25.23076514 74.42344577 15.5234375 85.9375 C3.7161093 98.45939274 -10.34199627 104.84089453 -27.5 105.5 C-44.65800373 104.84089453 -58.7161093 98.45939274 -70.5234375 85.9375 C-80.28635911 74.35750465 -84.89518135 60.27127085 -84.31640625 45.1484375 C-82.56138187 27.68486159 -75.06160716 14.23059027 -61.7109375 3.08984375 C-44.66616868 -9.02743736 -17.50086993 -13.65067855 0 0 Z " fill="#000000" transform="translate(284,240)"/>
<path d="M0 0 C6.26095283 6.53951217 9.53043917 14.13048962 10.25 23.125 C9.56709541 33.71002113 6.06658679 41.29027125 -1.66015625 48.5625 C-7.86969716 53.49490129 -15.8507439 55.61412195 -23.71484375 55.28125 C-33.61850647 54.06233767 -40.93775518 49.95592868 -47.3125 42.3125 C-51.80463627 35.92313996 -53.84521454 27.74779994 -53 20 C-51.13759981 10.73455903 -47.35322972 3.00209463 -39.4375 -2.4375 C-26.81630596 -10.3341829 -11.65124392 -9.56161865 0 0 Z M-35 16 C-37.15112238 20.60146103 -37.32012111 23.87016079 -35.9375 28.75 C-33.43303233 32.95104254 -30.90703413 35.86608782 -26.6875 38.375 C-21.3880728 39.60742493 -17.37125848 38.72443844 -12.6875 36.25 C-8.8242064 33.01561466 -7.3851172 30.48545207 -6.125 25.625 C-5.94856687 20.50843924 -7.23909269 17.27117023 -10.375 13.2265625 C-13.74313189 9.77746591 -16.6179498 8.52172678 -21.4375 8.1875 C-27.61830186 8.56209405 -31.39788827 11.01738352 -35 16 Z " fill="#000000" transform="translate(278,265)"/>
</svg>
